HIERARCHY
ROOT mixamorig:Hips
{
	OFFSET 0.000000 201.639420 0.000000
	CHANNELS 6 Xposition Yposition Zposition Xrotation Yrotation Zrotation
	JOINT mixamorig:Spine
	{
		OFFSET 0.006200 19.524994 -2.481800
		CHANNELS 3 Xrotation Yrotation Zrotation
		JOINT mixamorig:Spine1
		{
			OFFSET -0.000900 22.835007 -2.825400
			CHANNELS 3 Xrotation Yrotation Zrotation
			JOINT mixamorig:Spine2
			{
				OFFSET -0.020600 26.552490 -3.193300
				CHANNELS 3 Xrotation Yrotation Zrotation
				JOINT mixamorig:Neck
				{
					OFFSET -0.060000 30.701813 1.352200
					CHANNELS 3 Xrotation Yrotation Zrotation
					JOINT mixamorig:Head
					{
						OFFSET -0.087200 22.547607 3.670900
						CHANNELS 3 Xrotation Yrotation Zrotation
						JOINT mixamorig:HeadTop_End
						{
							OFFSET -0.830600 40.355194 7.893500
							CHANNELS 3 Xrotation Yrotation Zrotation
							End Site
							{
								OFFSET 0.000000 30.592346 0.000000
							}
						}
						JOINT mixamorig:RightEye
						{
							OFFSET -6.302100 18.118591 16.197100
							CHANNELS 3 Xrotation Yrotation Zrotation
							End Site
							{
								OFFSET 0.000000 30.592346 0.000000
							}
						}
						JOINT mixamorig:LeftEye
						{
							OFFSET 6.741500 18.382690 16.401899
							CHANNELS 3 Xrotation Yrotation Zrotation
							End Site
							{
								OFFSET 0.000000 30.592346 0.000000
							}
						}
					}
				}
				JOINT mixamorig:LeftShoulder
				{
					OFFSET 11.924900 18.230499 1.425400
					CHANNELS 3 Xrotation Yrotation Zrotation
					JOINT mixamorig:LeftArm
					{
						OFFSET 25.435989 -0.697632 -5.229300
						CHANNELS 3 Xrotation Yrotation Zrotation
						JOINT mixamorig:LeftForeArm
						{
							OFFSET 54.684776 0.000000 0.000000
							CHANNELS 3 Xrotation Yrotation Zrotation
							JOINT mixamorig:LeftHand
							{
								OFFSET 55.098175 0.000000 0.000000
								CHANNELS 3 Xrotation Yrotation Zrotation
								JOINT mixamorig:LeftHandMiddle1
								{
									OFFSET 23.369751 0.000000 0.000000
									CHANNELS 3 Xrotation Yrotation Zrotation
									JOINT mixamorig:LeftHandMiddle2
									{
										OFFSET 6.378677 0.000000 0.000000
										CHANNELS 3 Xrotation Yrotation Zrotation
										JOINT mixamorig:LeftHandMiddle3
										{
											OFFSET 6.148331 0.000000 0.000000
											CHANNELS 3 Xrotation Yrotation Zrotation
											JOINT mixamorig:LeftHandMiddle4
											{
												OFFSET 6.582504 0.000000 0.000000
												CHANNELS 3 Xrotation Yrotation Zrotation
												End Site
												{
													OFFSET -1.168900 6.395691 1.028606
												}
											}
										}
									}
								}
								JOINT mixamorig:LeftHandThumb1
								{
									OFFSET 7.235672 -3.848206 5.434273
									CHANNELS 3 Xrotation Yrotation Zrotation
									JOINT mixamorig:LeftHandThumb2
									{
										OFFSET 6.568451 -3.792297 3.792300
										CHANNELS 3 Xrotation Yrotation Zrotation
										JOINT mixamorig:LeftHandThumb3
										{
											OFFSET 6.063080 -3.500519 3.500518
											CHANNELS 3 Xrotation Yrotation Zrotation
											JOINT mixamorig:LeftHandThumb4
											{
												OFFSET 4.793182 -2.767334 2.767349
												CHANNELS 3 Xrotation Yrotation Zrotation
												End Site
												{
													OFFSET 0.101639 6.054260 1.275483
												}
											}
										}
									}
								}
								JOINT mixamorig:LeftHandIndex1
								{
									OFFSET 23.101074 -0.309540 4.992809
									CHANNELS 3 Xrotation Yrotation Zrotation
									JOINT mixamorig:LeftHandIndex2
									{
										OFFSET 6.226883 0.000000 0.000000
										CHANNELS 3 Xrotation Yrotation Zrotation
										JOINT mixamorig:LeftHandIndex3
										{
											OFFSET 6.094330 0.000000 0.000000
											CHANNELS 3 Xrotation Yrotation Zrotation
											JOINT mixamorig:LeftHandIndex4
											{
												OFFSET 5.482605 0.000000 0.000000
												CHANNELS 3 Xrotation Yrotation Zrotation
												End Site
												{
													OFFSET -1.427902 5.233032 0.797164
												}
											}
										}
									}
								}
								JOINT mixamorig:LeftHandRing1
								{
									OFFSET 22.299240 0.021149 -3.964172
									CHANNELS 3 Xrotation Yrotation Zrotation
									JOINT mixamorig:LeftHandRing2
									{
										OFFSET 6.321869 0.000000 0.000000
										CHANNELS 3 Xrotation Yrotation Zrotation
										JOINT mixamorig:LeftHandRing3
										{
											OFFSET 5.899796 0.000000 0.000000
											CHANNELS 3 Xrotation Yrotation Zrotation
											JOINT mixamorig:LeftHandRing4
											{
												OFFSET 6.517899 0.000000 0.000000
												CHANNELS 3 Xrotation Yrotation Zrotation
												End Site
												{
													OFFSET -1.637299 6.232208 0.980890
												}
											}
										}
									}
								}
								JOINT mixamorig:LeftHandPinky1
								{
									OFFSET 20.463791 -0.302338 -8.562233
									CHANNELS 3 Xrotation Yrotation Zrotation
									JOINT mixamorig:LeftHandPinky2
									{
										OFFSET 6.908646 0.000000 0.000000
										CHANNELS 3 Xrotation Yrotation Zrotation
										JOINT mixamorig:LeftHandPinky3
										{
											OFFSET 4.622849 0.000000 0.000000
											CHANNELS 3 Xrotation Yrotation Zrotation
											JOINT mixamorig:LeftHandPinky4
											{
												OFFSET 5.216080 0.000000 0.000000
												CHANNELS 3 Xrotation Yrotation Zrotation
												End Site
												{
													OFFSET -0.606308 5.116241 0.814926
												}
											}
										}
									}
								}
							}
						}
					}
				}
				JOINT mixamorig:RightShoulder
				{
					OFFSET -12.001300 18.284088 1.348900
					CHANNELS 3 Xrotation Yrotation Zrotation
					JOINT mixamorig:RightArm
					{
						OFFSET -25.308500 -0.751312 -5.164599
						CHANNELS 3 Xrotation Yrotation Zrotation
						JOINT mixamorig:RightForeArm
						{
							OFFSET -54.684429 0.000000 0.000000
							CHANNELS 3 Xrotation Yrotation Zrotation
							JOINT mixamorig:RightHand
							{
								OFFSET -55.150291 0.000000 0.000000
								CHANNELS 3 Xrotation Yrotation Zrotation
								JOINT mixamorig:RightHandMiddle1
								{
									OFFSET -23.317566 0.000000 0.000000
									CHANNELS 3 Xrotation Yrotation Zrotation
									JOINT mixamorig:RightHandMiddle2
									{
										OFFSET -6.378403 0.000000 0.000000
										CHANNELS 3 Xrotation Yrotation Zrotation
										JOINT mixamorig:RightHandMiddle3
										{
											OFFSET -6.148193 0.000000 0.000000
											CHANNELS 3 Xrotation Yrotation Zrotation
											JOINT mixamorig:RightHandMiddle4
											{
												OFFSET -6.583389 0.000000 0.000000
												CHANNELS 3 Xrotation Yrotation Zrotation
												End Site
												{
													OFFSET 1.171692 6.395905 1.029786
												}
											}
										}
									}
								}
								JOINT mixamorig:RightHandThumb1
								{
									OFFSET -7.190521 -3.860474 5.435846
									CHANNELS 3 Xrotation Yrotation Zrotation
									JOINT mixamorig:RightHandThumb2
									{
										OFFSET -6.567429 -3.791718 3.791708
										CHANNELS 3 Xrotation Yrotation Zrotation
										JOINT mixamorig:RightHandThumb3
										{
											OFFSET -6.062469 -3.500153 3.500166
											CHANNELS 3 Xrotation Yrotation Zrotation
											JOINT mixamorig:RightHandThumb4
											{
												OFFSET -4.792618 -2.767029 2.767022
												CHANNELS 3 Xrotation Yrotation Zrotation
												End Site
												{
													OFFSET -0.100327 6.053253 1.276754
												}
											}
										}
									}
								}
								JOINT mixamorig:RightHandIndex1
								{
									OFFSET -23.048981 -0.310791 4.992554
									CHANNELS 3 Xrotation Yrotation Zrotation
									JOINT mixamorig:RightHandIndex2
									{
										OFFSET -6.227539 0.000000 0.000000
										CHANNELS 3 Xrotation Yrotation Zrotation
										JOINT mixamorig:RightHandIndex3
										{
											OFFSET -6.095047 0.000000 0.000000
											CHANNELS 3 Xrotation Yrotation Zrotation
											JOINT mixamorig:RightHandIndex4
											{
												OFFSET -5.484772 0.000000 0.000000
												CHANNELS 3 Xrotation Yrotation Zrotation
												End Site
												{
													OFFSET 1.420593 5.237305 0.797056
												}
											}
										}
									}
								}
								JOINT mixamorig:RightHandRing1
								{
									OFFSET -22.246323 0.020569 -3.963762
									CHANNELS 3 Xrotation Yrotation Zrotation
									JOINT mixamorig:RightHandRing2
									{
										OFFSET -6.322128 0.000000 0.000000
										CHANNELS 3 Xrotation Yrotation Zrotation
										JOINT mixamorig:RightHandRing3
										{
											OFFSET -5.900024 0.000000 0.000000
											CHANNELS 3 Xrotation Yrotation Zrotation
											JOINT mixamorig:RightHandRing4
											{
												OFFSET -6.518356 0.000000 0.000000
												CHANNELS 3 Xrotation Yrotation Zrotation
												End Site
												{
													OFFSET 1.636398 6.232697 0.982186
												}
											}
										}
									}
								}
								JOINT mixamorig:RightHandPinky1
								{
									OFFSET -20.411011 -0.303314 -8.561701
									CHANNELS 3 Xrotation Yrotation Zrotation
									JOINT mixamorig:RightHandPinky2
									{
										OFFSET -6.907349 0.000000 0.000000
										CHANNELS 3 Xrotation Yrotation Zrotation
										JOINT mixamorig:RightHandPinky3
										{
											OFFSET -4.623840 0.000000 0.000000
											CHANNELS 3 Xrotation Yrotation Zrotation
											JOINT mixamorig:RightHandPinky4
											{
												OFFSET -5.218353 0.000000 0.000000
												CHANNELS 3 Xrotation Yrotation Zrotation
												End Site
												{
													OFFSET 0.602097 5.118835 0.816273
												}
											}
										}
									}
								}
							}
						}
					}
				}
			}
		}
	}
	JOINT mixamorig:LeftUpLeg
	{
		OFFSET 18.168400 -13.561905 -0.039000
		CHANNELS 3 Xrotation Yrotation Zrotation
		JOINT mixamorig:LeftLeg
		{
			OFFSET 0.577358 -80.825211 -3.695000
			CHANNELS 3 Xrotation Yrotation Zrotation
			JOINT mixamorig:LeftFoot
			{
				OFFSET -0.577356 -83.370262 -6.520700
				CHANNELS 3 Xrotation Yrotation Zrotation
				JOINT mixamorig:LeftToeBase
				{
					OFFSET 0.750401 -20.798306 25.135401
					CHANNELS 3 Xrotation Yrotation Zrotation
					JOINT mixamorig:LeftToe_End
					{
						OFFSET -0.000500 0.001200 19.917799
						CHANNELS 3 Xrotation Yrotation Zrotation
						End Site
						{
							OFFSET 0.000000 19.917805 0.000000
						}
					}
				}
			}
		}
	}
	JOINT mixamorig:RightUpLeg
	{
		OFFSET -18.162500 -13.585098 -0.041000
		CHANNELS 3 Xrotation Yrotation Zrotation
		JOINT mixamorig:RightLeg
		{
			OFFSET -0.595024 -80.945297 -3.631900
			CHANNELS 3 Xrotation Yrotation Zrotation
			JOINT mixamorig:RightFoot
			{
				OFFSET 0.595024 -83.218193 -6.561200
				CHANNELS 3 Xrotation Yrotation Zrotation
				JOINT mixamorig:RightToeBase
				{
					OFFSET -0.753601 -20.807106 25.115000
					CHANNELS 3 Xrotation Yrotation Zrotation
					JOINT mixamorig:RightToe_End
					{
						OFFSET 0.000299 0.001700 19.918200
						CHANNELS 3 Xrotation Yrotation Zrotation
						End Site
						{
							OFFSET 0.000000 19.918203 0.000000
						}
					}
				}
			}
		}
	}
}
MOTION
Frames: 4
Frame Time: 0.033333
124.636467 295.567719 22.831108 -16.244597 11.388783 -24.531033 -2.772645 -1.884657 0.353741 -5.493405 -3.615269 1.560724 -5.493405 -3.615270 1.560726 -1.033444 5.844595 4.583051 0.554242 -28.735501 -1.110771 0.000001 0.000000 -0.000000 0.000001 0.000000 -0.000000 0.000001 0.000000 -0.000000 8.554832 13.715038 35.862113 -92.137428 -27.795619 -58.553115 -15.839535 -52.551667 18.860217 38.040260 -9.491005 -18.161415 -7.060706 -4.108815 -72.576928 -5.070793 -4.491235 -69.923099 0.000002 0.000003 0.000006 -0.000001 -0.000000 0.000003 -23.509202 8.716189 4.062154 -11.818709 8.157409 13.633479 0.000007 0.000001 -0.000004 -0.000001 -0.000001 -0.000001 -0.794435 -9.946606 -74.010215 -8.738823 -2.826274 -82.535234 0.000001 -0.000000 0.000004 -0.000000 -0.000000 -0.000003 -10.870954 6.242582 -70.812539 -0.411928 -6.818741 -77.496494 0.000005 -0.000010 -0.000006 -0.000000 -0.000001 -0.000003 -15.063743 6.363718 -69.041280 0.827278 -8.181747 -68.683228 -0.000002 0.000006 -0.000006 -0.000001 0.000001 -0.000004 3.203141 0.480862 -32.240610 -51.703644 -5.041290 56.527988 -112.716085 101.620203 78.145779 18.392424 -3.578996 40.558930 -10.566023 2.106526 62.429917 -3.797064 1.053679 63.288526 -0.000002 -0.000001 -0.000005 0.000001 0.000002 0.000002 -30.301735 7.839732 -12.447145 0.686054 -14.457296 5.043913 -0.000008 -0.000003 -0.000001 0.000002 -0.000001 0.000001 -4.273482 3.501186 44.074231 -3.781170 0.531253 63.937817 0.000007 -0.000011 0.000003 -0.000003 -0.000002 0.000000 -11.523568 -6.817777 65.098635 0.715397 6.321560 61.279521 0.000002 -0.000002 -0.000002 0.000000 0.000001 -0.000001 -13.805252 -11.646892 72.370164 2.937963 8.414352 65.277422 0.000008 -0.000005 0.000011 -0.000003 -0.000002 -0.000001 -6.200754 31.622444 -1.620137 40.978570 -1.559941 -12.635314 53.991013 -2.460396 -1.469169 -0.000000 -0.000001 -0.000002 -0.000001 0.000000 -0.000001 -34.565391 10.317077 -27.631291 23.519891 -12.240689 6.974548 47.270957 -11.302365 -23.599489 -0.000008 0.000003 0.000002 -0.000001 -0.000001 0.000002 
133.510986 287.206421 23.839603 -15.979784 8.048892 -22.962990 -2.816602 -1.782735 0.667646 -5.595556 -3.490441 1.714013 -5.595577 -3.490444 1.714014 -1.618565 4.792738 -0.284639 -0.313320 -29.103436 1.207838 -0.000000 0.000000 0.000001 -0.000000 0.000000 0.000001 -0.000000 0.000000 0.000001 9.424584 12.528858 35.813831 -92.886543 -31.312452 -53.039947 -16.807253 -50.994039 18.724567 37.883238 -4.852613 -20.673453 -7.059745 -4.106314 -72.567891 -5.075997 -4.491766 -69.935748 -0.000001 0.000002 0.000007 -0.000001 -0.000001 -0.000001 -23.500381 8.727478 4.069890 -11.817668 8.162611 13.634169 0.000007 0.000003 -0.000005 0.000000 0.000001 -0.000000 -0.792067 -9.946080 -74.026478 -8.750316 -2.824562 -82.609676 0.000003 0.000000 0.000001 -0.000001 0.000001 -0.000003 -10.874422 6.242743 -70.803216 -0.411210 -6.819135 -77.466216 0.000004 -0.000009 -0.000008 -0.000002 0.000000 0.000001 -15.071912 6.358726 -69.035652 0.827324 -8.182168 -68.649883 0.000000 0.000007 -0.000003 -0.000001 -0.000002 0.000001 4.047129 1.808164 -33.550456 -58.121850 -2.674158 55.592375 -147.270490 108.122345 108.874315 30.329735 -4.674675 33.127083 -12.353274 2.066644 80.130912 -5.130161 1.180059 78.227502 -0.000001 -0.000003 -0.000005 0.000001 -0.000000 -0.000003 -20.778040 7.232630 -22.842162 2.384982 -18.663432 2.268942 -0.000008 -0.000003 0.000001 -0.000001 -0.000001 0.000000 -7.002628 4.713803 72.976316 -5.032068 0.837045 76.624668 0.000007 -0.000011 -0.000000 0.000001 -0.000000 0.000001 -13.030160 -6.929471 74.167023 0.058600 6.881516 72.974725 -0.000000 -0.000002 0.000001 -0.000001 0.000000 0.000001 -16.761088 -11.579283 75.321584 1.655513 11.015664 70.881251 0.000007 -0.000006 0.000007 0.000000 0.000000 -0.000000 -8.294796 31.028508 -0.916211 38.071628 -2.442398 -8.993308 56.587431 -2.350458 1.567017 0.000001 0.000000 -0.000002 0.000000 -0.000001 -0.000000 -34.885987 10.946576 -27.413690 23.810862 -7.966090 7.414873 46.462498 -9.554221 -18.297141 -0.000007 0.000002 -0.000002 0.000001 -0.000002 -0.000001 
144.203873 279.685364 25.014252 -14.961712 5.506981 -20.452419 -2.871479 -1.552920 0.867365 -5.714207 -3.075691 1.871779 -5.714199 -3.075689 1.871775 -3.530180 3.952267 -4.445579 -0.334006 -28.779849 2.673121 0.000001 0.000002 0.000001 0.000001 0.000002 0.000001 0.000001 0.000002 0.000001 9.687867 11.924344 35.366829 -91.883994 -34.913741 -46.692416 -18.131442 -49.733777 17.122680 35.576290 0.526479 -21.536560 -7.056614 -4.105697 -72.538952 -5.072778 -4.492152 -69.921944 -0.000000 0.000003 0.000009 0.000002 0.000001 0.000001 -23.502148 8.728728 4.057121 -11.818051 8.160643 13.633903 0.000010 0.000001 -0.000003 0.000003 -0.000001 -0.000001 -0.793180 -9.944616 -73.993372 -8.746634 -2.824743 -82.586686 0.000001 0.000000 0.000002 -0.000000 -0.000000 0.000001 -10.869762 6.242622 -70.780909 -0.409116 -6.819673 -77.450855 0.000002 -0.000009 -0.000006 0.000001 0.000001 -0.000003 -15.060461 6.362502 -69.026595 0.828612 -8.183134 -68.636188 0.000002 0.000005 -0.000009 0.000000 0.000000 -0.000002 4.510355 2.486067 -34.932617 -61.785256 -0.197437 48.476632 -176.408651 112.838816 136.566286 30.682453 -1.965825 28.885273 -13.271017 1.794287 87.904330 -5.703432 1.058656 84.787441 0.000001 -0.000003 -0.000004 0.000001 -0.000000 -0.000000 -16.526455 6.263706 -27.236325 3.188108 -20.605832 1.032275 -0.000008 -0.000005 -0.000001 -0.000002 0.000002 0.000001 -8.463103 4.652326 85.618812 -5.598416 0.849287 82.196225 0.000008 -0.000010 -0.000004 0.000002 0.000000 0.000001 -13.752369 -7.126021 78.178776 -0.234400 7.123099 78.137692 -0.000000 -0.000003 -0.000002 -0.000000 -0.000000 0.000004 -18.104128 -11.664716 76.696051 0.959573 12.077491 73.456273 0.000003 -0.000003 0.000005 -0.000002 -0.000001 -0.000001 -12.779625 29.613521 2.766107 41.104037 -10.613799 -7.270231 53.893567 -3.252806 -0.735843 0.000003 0.000003 -0.000003 0.000003 0.000003 0.000000 -34.068393 11.418425 -28.038703 24.501287 -5.517206 7.557931 43.774529 -8.458639 -16.350768 -0.000008 0.000000 -0.000001 -0.000001 0.000000 0.000003 
157.200455 272.962158 26.162640 -13.143743 4.081921 -16.647661 -2.885369 -1.315022 0.898634 -5.749899 -2.600709 1.811150 -5.749910 -2.600709 1.811145 -8.034457 3.331987 -5.197655 0.588098 -26.989798 1.723177 0.000000 -0.000001 -0.000001 0.000000 -0.000001 -0.000001 0.000000 -0.000001 -0.000001 9.372431 12.113134 34.673609 -92.391682 -37.612684 -42.742743 -19.566159 -49.077880 16.610713 34.228656 5.353834 -22.914158 -7.056018 -4.106438 -72.533672 -5.069874 -4.492079 -69.913024 0.000003 0.000003 0.000003 -0.000000 0.000000 -0.000002 -23.505966 8.724914 4.050340 -11.818582 8.158041 13.633570 0.000004 0.000001 -0.000004 0.000003 -0.000000 -0.000001 -0.794388 -9.944372 -73.977383 -8.741227 -2.825408 -82.551900 0.000000 0.000000 0.000002 0.000000 0.000000 -0.000002 -10.867058 6.242527 -70.777733 -0.408755 -6.819683 -77.457685 0.000003 -0.000009 -0.000007 -0.000001 -0.000000 0.000001 -15.053957 6.365514 -69.025960 0.828988 -8.183286 -68.644583 -0.000002 0.000009 -0.000002 0.000001 -0.000000 0.000001 4.479658 2.333797 -35.234596 -63.139874 3.841649 37.202685 -195.673349 121.862651 157.129226 26.782543 3.079593 25.186819 -13.295175 1.776950 88.194176 -5.727445 1.054563 85.054754 0.000002 -0.000003 -0.000003 0.000000 0.000000 -0.000000 -16.465667 6.239903 -27.426742 3.217418 -20.727070 0.916809 -0.000005 -0.000003 -0.000001 0.000000 0.000001 0.000001 -8.489117 4.651858 85.875709 -5.615079 0.849957 82.359630 0.000006 -0.000010 -0.000001 -0.000000 -0.000000 0.000000 -13.800863 -7.141081 78.436082 -0.251052 7.135054 78.425059 -0.000003 -0.000003 -0.000001 -0.000001 -0.000000 0.000004 -18.203789 -11.691226 76.974053 0.945480 12.094301 73.723498 0.000002 -0.000006 0.000007 0.000000 0.000001 0.000000 -16.863831 27.033532 8.383256 46.404616 -21.970726 -7.242794 47.287534 -4.023010 -4.567168 -0.000000 0.000001 0.000002 0.000001 -0.000001 -0.000001 -31.800073 11.624570 -28.856976 25.740780 -5.034067 7.208127 38.552391 -7.595193 -18.356314 -0.000009 0.000002 0.000002 0.000002 -0.000000 0.000000 
